<?xml version="1.0" encoding="UTF-8"?>
<svg version="1.1" xmlns="http://www.w3.org/2000/svg" width="1080" height="607">
<path d="M0 0 C356.4 0 712.8 0 1080 0 C1080 200.31 1080 400.62 1080 607 C723.6 607 367.2 607 0 607 C0 406.69 0 206.38 0 0 Z " fill="#FBFBFB" transform="translate(0,0)"/>
<path d="M0 0 C174.9 0 349.8 0 530 0 C530 85.14 530 170.28 530 258 C315.5 258 101 258 -120 258 C-120 212.46 -120 166.92 -120 120 C-112.41 117.36 -104.82 114.72 -97 112 C-92.82634054 110.12101226 -88.91527356 108.31009644 -84.9375 106.125 C-83.98762207 105.61525635 -83.03774414 105.1055127 -82.05908203 104.58032227 C-74.23828857 100.30238953 -66.94745712 95.57993224 -60 90 C-59.44666992 89.5580127 -58.89333984 89.11602539 -58.32324219 88.66064453 C-31.41130305 66.96318244 -6.93087294 34.65436469 0 0 Z " fill="#DC0000" transform="translate(550,349)"/>
<path d="M0 0 C214.5 0 429 0 650 0 C650 85.14 650 170.28 650 258 C475.43 258 300.86 258 121 258 C117.7 249.42 114.4 240.84 111 232 C102.50874667 214.53911286 92.07418588 199.31956367 79 185 C77.82050781 183.69482422 77.82050781 183.69482422 76.6171875 182.36328125 C62.80877834 167.82934551 45.60197515 157.02884287 27.6875 148.3125 C26.99027832 147.96799805 26.29305664 147.62349609 25.57470703 147.26855469 C17.23851303 143.34323236 8.90997627 140.96999209 0 138 C0 92.46 0 46.92 0 0 Z " fill="#DC0000" transform="translate(430,0)"/>
<path d="M0 0 C72.27 0 144.54 0 219 0 C220.98 6.435 220.98 6.435 223 13 C224.77975702 17.4445031 226.89249615 21.70205812 229 26 C229.60507054 27.28212591 230.20920429 28.56469425 230.8125 29.84765625 C237.49771703 43.8648812 245.87177398 56.22166974 256 68 C256.60585938 68.72832031 257.21171875 69.45664062 257.8359375 70.20703125 C261.85881953 74.96713827 266.23036556 79.0020448 271 83 C271.86238281 83.76183594 272.72476562 84.52367187 273.61328125 85.30859375 C292.40926804 101.61201396 315.15491331 113.18711809 339 120 C339 165.54 339 211.08 339 258 C227.13 258 115.26 258 0 258 C0 172.86 0 87.72 0 0 Z " fill="#DC0000" transform="translate(0,349)"/>
<path d="M0 0 C111.87 0 223.74 0 339 0 C339 45.54 339 91.08 339 138 C333.06 139.98 327.12 141.96 321 144 C317.70497983 145.35649006 314.55508298 146.68786695 311.375 148.25 C310.20481323 148.81678467 310.20481323 148.81678467 309.01098633 149.39501953 C288.45465476 159.57199968 268.44516197 174.05298058 254 192 C253.21882812 192.96679688 252.43765625 193.93359375 251.6328125 194.9296875 C239.38579002 210.33488034 228.48839605 227.99956293 223 247 C222.44556604 248.71096815 221.88368959 250.41955241 221.3125 252.125 C221.08175781 252.82882813 220.85101563 253.53265625 220.61328125 254.2578125 C220 256 220 256 219 258 C146.73 258 74.46 258 0 258 C0 172.86 0 87.72 0 0 Z " fill="#DC0000" transform="translate(0,0)"/>
<path d="M0 0 C44.55 0 89.1 0 135 0 C131.63418291 10.09745127 131.63418291 10.09745127 129.765625 14.0234375 C129.35981201 14.88936523 128.95399902 15.75529297 128.53588867 16.64746094 C127.89937378 17.99759277 127.89937378 17.99759277 127.25 19.375 C119.95848385 35.16818728 114.27209254 51.14315934 110 68 C109.81308594 68.72993164 109.62617188 69.45986328 109.43359375 70.21191406 C107.23378355 78.88424273 105.48639273 87.45188721 104.39453125 96.33984375 C104 99 104 99 103 101 C110.74435817 100.02622715 118.29700832 98.841782 125.84375 96.8359375 C128.06493857 96.24765241 130.29527459 95.69337526 132.53125 95.1640625 C148.91053455 91.26898873 164.86504144 86.435007 180 79 C183.86456356 77.18539152 187.7437957 75.40367731 191.625 73.625 C193.08583008 72.94473755 193.08583008 72.94473755 194.57617188 72.25073242 C195.49205078 71.83025635 196.40792969 71.40978027 197.3515625 70.9765625 C198.17479004 70.59580566 198.99801758 70.21504883 199.84619141 69.82275391 C202 69 202 69 205 69 C205 113.55 205 158.1 205 204 C201.05179055 203.21035811 198.63428732 202.50922559 195.140625 200.8125 C194.2017041 200.36519531 193.2627832 199.91789063 192.29541016 199.45703125 C191.2904248 198.97621094 190.28543945 198.49539063 189.25 198 C171.02990693 189.45749213 151.971289 182.3648269 132.3125 177.9375 C128.32085209 177.03146506 124.372417 176.1100881 120.4453125 174.94921875 C116.81977795 173.95034699 113.28830503 173.371774 109.5625 172.875 C107.70818359 172.62363281 107.70818359 172.62363281 105.81640625 172.3671875 C104.88699219 172.24601563 103.95757812 172.12484375 103 172 C103.29390625 173.28261719 103.5878125 174.56523437 103.890625 175.88671875 C104.6214812 179.17108394 105.28012409 182.45515544 105.859375 185.76953125 C108.03129153 198.17225324 111.01948683 210.05617547 115 222 C115.28327148 222.8564209 115.56654297 223.7128418 115.85839844 224.59521484 C120.13040494 237.33334693 125.33594939 249.49347834 131.13916016 261.60986328 C131.89011963 263.18550049 131.89011963 263.18550049 132.65625 264.79296875 C133.10806641 265.7264917 133.55988281 266.66001465 134.02539062 267.62182617 C135 270 135 270 135 273 C90.45 273 45.9 273 0 273 C1.39360233 268.819193 2.79971648 265.04732286 4.609375 261.0703125 C5.3660144 259.39545776 5.3660144 259.39545776 6.13793945 257.68676758 C6.66991943 256.51138428 7.20189941 255.33600098 7.75 254.125 C12.19365459 244.20906554 16.6084347 234.33675824 20 224 C20.27650391 223.16065918 20.55300781 222.32131836 20.83789062 221.45654297 C26.0920096 205.20483182 29.32285317 188.84817739 32 172 C-0.27655668 176.75548014 -30.14263186 186.66755801 -59.61376953 200.59667969 C-60.55591309 201.04172852 -61.49805664 201.48677734 -62.46875 201.9453125 C-63.29826172 202.34250488 -64.12777344 202.73969727 -64.98242188 203.14892578 C-67 204 -67 204 -69 204 C-69 159.45 -69 114.9 -69 69 C-64.87624242 70.37458586 -61.19076573 71.74118413 -57.28125 73.5390625 C-28.20449757 86.77420642 0.36099612 96.07257789 32 101 C27.01115905 66.12091558 15.65743916 35.24359618 1.06640625 3.44238281 C0 1 0 1 0 0 Z " fill="#010101" transform="translate(317,167)"/>
<path d="M0 0 C173.58 0 347.16 0 526 0 C526 20.13 526 40.26 526 61 C352.42 61 178.84 61 0 61 C0.66 54.4 1.32 47.8 2 41 C2.16685471 36.53172901 2.28433048 32.14760152 2.25 27.6875 C2.25773438 26.66333984 2.26546875 25.63917969 2.2734375 24.58398438 C2.25231254 16.10759482 1.14429549 8.58221617 0 0 Z " fill="#010101" transform="translate(554,273)"/>
<path d="M0 0 C1.1283728 0.00264359 1.1283728 0.00264359 2.27954102 0.00534058 C43.40319635 0.21828456 81.61047673 17.02281969 110.75 45.875 C140.22701992 75.72095325 155.24927433 115.20934815 155.18334961 156.93969727 C155.09207579 164.60310452 154.36917247 171.945945 153 179.5 C152.88172852 180.17675781 152.76345703 180.85351562 152.64160156 181.55078125 C148.43550828 204.96791128 138.83545187 227.8258028 124 246.5 C123.33742188 247.36496094 122.67484375 248.22992188 121.9921875 249.12109375 C96.44617483 281.59563753 60.99888883 300.49234168 20.51171875 307.06640625 C2.95355371 309.14090461 -16.8623401 308.85097092 -34 304.5 C-35.15653076 304.21793701 -35.15653076 304.21793701 -36.33642578 303.93017578 C-75.51973637 294.10895516 -109.69494035 268.76694924 -130.84765625 234.44580078 C-134.28072478 228.64886091 -137.20011538 222.62255103 -140 216.5 C-140.31066406 215.83274902 -140.62132812 215.16549805 -140.94140625 214.47802734 C-144.80309165 206.08613256 -147.69848816 197.66932998 -149.875 188.6875 C-150.07826904 187.85259033 -150.28153809 187.01768066 -150.4909668 186.1574707 C-159.55543105 146.12700646 -150.10778186 105.19680903 -129.34130859 70.61914062 C-125.70181219 64.86908078 -121.43473635 59.64819145 -117 54.5 C-116.56075195 53.98244141 -116.12150391 53.46488281 -115.66894531 52.93164062 C-96.73066352 30.77848372 -71.63305815 14.57054081 -43.75 6.0625 C-43.01998779 5.83973389 -42.28997559 5.61696777 -41.5378418 5.38745117 C-27.83825135 1.51443263 -14.18906677 -0.09005727 0 0 Z M-67 17.5 C-60.46165847 32.76042168 -60.46165847 32.76042168 -53.875 48 C-44.3352055 70.77791887 -38.20074584 94.03901553 -35 118.5 C-67.01910939 113.67274422 -96.59113025 104.18814564 -125.80078125 90.30981445 C-126.84363281 89.81441162 -127.88648438 89.31900879 -128.9609375 88.80859375 C-130.34998291 88.14041626 -130.34998291 88.14041626 -131.76708984 87.45874023 C-133.90128741 86.36848746 -133.90128741 86.36848746 -136 86.5 C-136 131.05 -136 175.6 -136 221.5 C-131.84791075 220.11597025 -128.11901642 218.7294324 -124.17578125 216.92578125 C-123.07484131 216.42651123 -121.97390137 215.92724121 -120.83959961 215.4128418 C-119.67565674 214.884729 -118.51171387 214.35661621 -117.3125 213.8125 C-90.70769565 201.87866138 -63.88720974 193.85508523 -35 189.5 C-37.27457461 204.06396741 -39.9412144 218.32115521 -44 232.5 C-44.47953125 234.18657715 -44.47953125 234.18657715 -44.96875 235.90722656 C-48.91745654 249.27789721 -54.8848555 261.80623722 -60.64501953 274.46728516 C-61.51104143 276.37272335 -62.37295254 278.27997901 -63.234375 280.1875 C-63.74194336 281.30511719 -64.24951172 282.42273438 -64.77246094 283.57421875 C-66.13760742 286.62064999 -66.13760742 286.62064999 -67 290.5 C-22.45 290.5 22.1 290.5 68 290.5 C67.21035811 286.55179055 66.50922559 284.13428732 64.8125 280.640625 C64.14178467 279.2330896 64.14178467 279.2330896 63.45751953 277.79711914 C62.73604736 276.28879517 62.73604736 276.28879517 62 274.75 C56.16102346 262.27269735 51.34887782 249.56499282 47 236.5 C46.73461426 235.70513184 46.46922852 234.91026367 46.19580078 234.09130859 C42.88872431 224.00930302 40.75288529 213.8141899 38.89453125 203.375 C38.06301794 198.71628567 37.05557017 194.11288813 36 189.5 C45.59369498 190.63925128 54.72894477 192.49753149 64.04589844 194.98535156 C65.87173806 195.46621987 67.70521254 195.91783354 69.5390625 196.3671875 C88.26147663 201.05816931 105.94954727 208.08347947 123.41650391 216.19506836 C124.59132324 216.73784424 125.76614258 217.28062012 126.9765625 217.83984375 C128.01893066 218.32831787 129.06129883 218.81679199 130.13525391 219.32006836 C133.27944983 220.72238387 133.27944983 220.72238387 138 221.5 C138 176.95 138 132.4 138 86.5 C133.96347322 87.30730536 131.34105988 88.11592604 127.71875 89.828125 C126.21900635 90.52953613 126.21900635 90.52953613 124.68896484 91.24511719 C123.63660645 91.74172852 122.58424805 92.23833984 121.5 92.75 C101.0113887 102.25486933 79.99078172 109.33290096 58 114.5 C56.6744131 114.84479819 55.34889433 115.18985841 54.0234375 115.53515625 C50.2107365 116.49316995 46.39783351 117.10029164 42.5 117.625 C41.2728125 117.79257812 40.045625 117.96015625 38.78125 118.1328125 C37.8634375 118.25398438 36.945625 118.37515625 36 118.5 C36.45708263 116.21458687 36.91484496 113.92932884 37.375 111.64453125 C37.80162982 109.49804999 38.21784993 107.34948004 38.625 105.19921875 C44.02398587 77.13062744 53.33230489 51.79319593 65.22119141 25.83349609 C65.58776855 25.02605957 65.9543457 24.21862305 66.33203125 23.38671875 C66.65534424 22.68119873 66.97865723 21.97567871 67.31176758 21.2487793 C68.12207033 19.5030449 68.12207033 19.5030449 68 17.5 C23.45 17.5 -21.1 17.5 -67 17.5 Z " fill="#FCFCFC" transform="translate(384,149.5)"/>
<path d="M0 0 C44.55 0 89.1 0 135 0 C131.63418291 10.09745127 131.63418291 10.09745127 129.765625 14.0234375 C129.35981201 14.88936523 128.95399902 15.75529297 128.53588867 16.64746094 C127.89937378 17.99759277 127.89937378 17.99759277 127.25 19.375 C119.95848385 35.16818728 114.27209254 51.14315934 110 68 C109.81308594 68.72993164 109.62617188 69.45986328 109.43359375 70.21191406 C107.23378355 78.88424273 105.48639273 87.45188721 104.39453125 96.33984375 C104 99 104 99 103 101 C110.74435817 100.02622715 118.29700832 98.841782 125.84375 96.8359375 C128.06493857 96.24765241 130.29527459 95.69337526 132.53125 95.1640625 C148.91053455 91.26898873 164.86504144 86.435007 180 79 C183.86456356 77.18539152 187.7437957 75.40367731 191.625 73.625 C193.08583008 72.94473755 193.08583008 72.94473755 194.57617188 72.25073242 C195.49205078 71.83025635 196.40792969 71.40978027 197.3515625 70.9765625 C198.17479004 70.59580566 198.99801758 70.21504883 199.84619141 69.82275391 C202 69 202 69 205 69 C205 113.55 205 158.1 205 204 C201.05179055 203.21035811 198.63428732 202.50922559 195.140625 200.8125 C194.2017041 200.36519531 193.2627832 199.91789063 192.29541016 199.45703125 C191.2904248 198.97621094 190.28543945 198.49539063 189.25 198 C171.02990693 189.45749213 151.971289 182.3648269 132.3125 177.9375 C128.32085209 177.03146506 124.372417 176.1100881 120.4453125 174.94921875 C116.81977795 173.95034699 113.28830503 173.371774 109.5625 172.875 C107.70818359 172.62363281 107.70818359 172.62363281 105.81640625 172.3671875 C104.88699219 172.24601563 103.95757812 172.12484375 103 172 C103.29390625 173.28261719 103.5878125 174.56523437 103.890625 175.88671875 C104.6214812 179.17108394 105.28012409 182.45515544 105.859375 185.76953125 C108.03129153 198.17225324 111.01948683 210.05617547 115 222 C115.28327148 222.8564209 115.56654297 223.7128418 115.85839844 224.59521484 C120.13040494 237.33334693 125.33594939 249.49347834 131.13916016 261.60986328 C131.89011963 263.18550049 131.89011963 263.18550049 132.65625 264.79296875 C133.10806641 265.7264917 133.55988281 266.66001465 134.02539062 267.62182617 C135 270 135 270 135 273 C90.45 273 45.9 273 0 273 C1.39360233 268.819193 2.79971648 265.04732286 4.609375 261.0703125 C5.3660144 259.39545776 5.3660144 259.39545776 6.13793945 257.68676758 C6.66991943 256.51138428 7.20189941 255.33600098 7.75 254.125 C12.19365459 244.20906554 16.6084347 234.33675824 20 224 C20.27650391 223.16065918 20.55300781 222.32131836 20.83789062 221.45654297 C26.0920096 205.20483182 29.32285317 188.84817739 32 172 C-0.27655668 176.75548014 -30.14263186 186.66755801 -59.61376953 200.59667969 C-60.55591309 201.04172852 -61.49805664 201.48677734 -62.46875 201.9453125 C-63.29826172 202.34250488 -64.12777344 202.73969727 -64.98242188 203.14892578 C-67 204 -67 204 -69 204 C-69 159.45 -69 114.9 -69 69 C-64.87624242 70.37458586 -61.19076573 71.74118413 -57.28125 73.5390625 C-28.20449757 86.77420642 0.36099612 96.07257789 32 101 C27.01115905 66.12091558 15.65743916 35.24359618 1.06640625 3.44238281 C0 1 0 1 0 0 Z M25 16 C28.63 25.57 32.26 35.14 36 45 C38.18786744 52.33340753 40.25485575 59.56737563 42 67 C42.33572021 68.39532959 42.33572021 68.39532959 42.67822266 69.81884766 C46.53395061 86.07446478 48.51130112 102.37403297 50 119 C15.94171743 116.37107727 -18.03291338 109.1952833 -49.13476562 94.75854492 C-50.97318031 93.87442825 -50.97318031 93.87442825 -53 94 C-53 122.05 -53 150.1 -53 179 C-46.98490435 176.99496812 -41.12229652 174.910386 -35.25 172.5625 C-21.91581792 167.33153438 -8.39571511 163.72128727 5.55664062 160.55517578 C7.61809651 160.08677543 9.67659859 159.60540305 11.734375 159.12109375 C24.32237745 156.35115312 37.19431138 155.30191865 50 154 C48.37393639 176.42511606 44.98783117 198.5924637 38 220 C37.70738281 221.03640625 37.41476562 222.0728125 37.11328125 223.140625 C34.72206319 231.58021815 31.39687573 239.58929764 27.99707031 247.6628418 C27.61131836 248.58234619 27.22556641 249.50185059 26.828125 250.44921875 C26.4765332 251.27768311 26.12494141 252.10614746 25.76269531 252.9597168 C24.88328237 254.94920118 24.88328237 254.94920118 25 257 C53.05 257 81.1 257 110 257 C109.28389616 253.41948081 108.58544127 250.63111982 107.29296875 247.3046875 C106.95330078 246.42296875 106.61363281 245.54125 106.26367188 244.6328125 C105.90853516 243.72273437 105.55339844 242.81265625 105.1875 241.875 C103.78440586 238.25275321 102.3879787 234.62806684 101 231 C100.65404785 230.1013623 100.3080957 229.20272461 99.95166016 228.27685547 C97.49349585 221.73540063 95.60582068 215.17352042 94 208.375 C93.61763184 206.76733765 93.61763184 206.76733765 93.22753906 205.12719727 C89.32994992 188.26754385 87.09430391 171.15833279 85 154 C119.93872265 158.02554144 119.93872265 158.02554144 136 162 C137.23363281 162.29519531 138.46726562 162.59039062 139.73828125 162.89453125 C154.02116444 166.49977029 168.31207961 171.02798349 181.72265625 177.15234375 C184.21979302 178.23255482 184.21979302 178.23255482 188 178 C188 150.61 188 123.22 188 95 C183.65298498 95.7245025 180.3949748 96.44100526 176.3671875 97.92578125 C175.31273437 98.31056641 174.25828125 98.69535156 173.171875 99.09179688 C172.08390625 99.49462891 170.9959375 99.89746094 169.875 100.3125 C146.71517083 108.8221951 146.71517083 108.8221951 136.3125 111.125 C135.63123047 111.28097656 134.94996094 111.43695313 134.24804688 111.59765625 C132.85806186 111.91469336 131.46683229 112.22631916 130.07446289 112.53271484 C128.74387101 112.83243861 127.41690474 113.14904396 126.09545898 113.48681641 C118.00941393 115.48117195 109.69773404 116.19588408 101.4375 117.125 C99.84044495 117.30815967 98.24343921 117.49174982 96.64648438 117.67578125 C92.76487388 118.12215501 88.8826416 118.5626896 85 119 C85.33 118.34 85.66 117.68 86 117 C86.16056432 114.66884395 86.27772277 112.33465342 86.375 110 C88.04618974 79.42239638 96.92278275 48.33669533 109.06225586 20.37646484 C110.12235113 18.11573162 110.12235113 18.11573162 110 16 C81.95 16 53.9 16 25 16 Z " fill="#090909" transform="translate(317,167)"/>
<path d="M0 0 C70.95 0 141.9 0 215 0 C215 7.463211 215 7.463211 214 11 C213.90449661 13.76923805 213.85993573 16.51229985 213.8671875 19.28125 C213.86623077 20.09057983 213.86527405 20.89990967 213.86428833 21.73376465 C213.86360838 23.44848712 213.8654498 25.16321218 213.86962891 26.87792969 C213.87492411 29.46295196 213.86970672 32.04779602 213.86328125 34.6328125 C213.86394315 36.30729204 213.86522661 37.98177148 213.8671875 39.65625 C213.86415115 40.79132996 213.86415115 40.79132996 213.86105347 41.94934082 C213.88822294 48.38772563 214.45983207 54.51798482 215 61 C144.05 61 73.1 61 0 61 C0 40.87 0 20.74 0 0 Z " fill="#010101" transform="translate(0,273)"/>
<path d="M0 0 C174.9 0 349.8 0 530 0 C530 4.95 530 9.9 530 15 C273.59 15.495 273.59 15.495 12 16 C9.36 22.6 6.72 29.2 4 36 C-1.92902335 47.40196799 -8.227421 57.82222555 -16 68 C-16.64710938 68.87140625 -17.29421875 69.7428125 -17.9609375 70.640625 C-29.70869001 85.77804523 -44.05995844 99.38157543 -60 110 C-60.5966748 110.39832031 -61.19334961 110.79664063 -61.80810547 111.20703125 C-69.51937543 116.26193882 -77.64214426 120.42845208 -85.9375 124.4375 C-87.2517395 125.07582764 -87.2517395 125.07582764 -88.5925293 125.72705078 C-89.85963745 126.32428955 -89.85963745 126.32428955 -91.15234375 126.93359375 C-91.89476318 127.28478271 -92.63718262 127.63597168 -93.40209961 127.99780273 C-96.8276825 129.31929675 -100.43798278 130.1094957 -104 131 C-104 172.91 -104 214.82 -104 258 C-109.28 258 -114.56 258 -120 258 C-120 212.46 -120 166.92 -120 120 C-112.41 117.36 -104.82 114.72 -97 112 C-92.82634054 110.12101226 -88.91527356 108.31009644 -84.9375 106.125 C-83.98762207 105.61525635 -83.03774414 105.1055127 -82.05908203 104.58032227 C-74.23828857 100.30238953 -66.94745712 95.57993224 -60 90 C-59.44666992 89.5580127 -58.89333984 89.11602539 -58.32324219 88.66064453 C-31.41130305 66.96318244 -6.93087294 34.65436469 0 0 Z " fill="#040404" transform="translate(550,349)"/>
<path d="M0 0 C5.28 0 10.56 0 16 0 C16 41.91 16 83.82 16 127 C19.3 127.99 22.6 128.98 26 130 C46.86903442 138.69718589 65.08760747 150.74028936 81.75390625 165.9765625 C83.52725596 167.57411928 85.31683982 169.08383492 87.1875 170.5625 C90.86642826 173.75090449 93.90472761 177.24995845 97 181 C97.8146875 181.97710937 98.629375 182.95421875 99.46875 183.9609375 C109.87324429 196.6707786 118.51520393 210.38294948 125.625 225.1875 C126.03886963 226.04802979 126.45273926 226.90855957 126.87915039 227.79516602 C129.28351377 232.97282161 130.56640957 237.26563828 132 243 C302.94 243 473.88 243 650 243 C650 247.95 650 252.9 650 258 C475.43 258 300.86 258 121 258 C117.7 249.42 114.4 240.84 111 232 C102.50874667 214.53911286 92.07418588 199.31956367 79 185 C77.82050781 183.69482422 77.82050781 183.69482422 76.6171875 182.36328125 C62.80877834 167.82934551 45.60197515 157.02884287 27.6875 148.3125 C26.99027832 147.96799805 26.29305664 147.62349609 25.57470703 147.26855469 C17.23851303 143.34323236 8.90997627 140.96999209 0 138 C0 92.46 0 46.92 0 0 Z " fill="#040404" transform="translate(430,0)"/>
<path d="M0 0 C0.82842392 0.00262701 1.65684785 0.00525403 2.51037553 0.00796065 C3.38610694 0.0068068 4.26183836 0.00565296 5.16410708 0.00446415 C8.13711235 0.00178969 11.11006486 0.00632642 14.08306745 0.01075396 C16.22057722 0.01031843 18.35808694 0.00944385 20.49559638 0.00816479 C26.39935901 0.0059163 32.30310369 0.00994592 38.20686403 0.01494285 C44.56205238 0.01924213 50.91723963 0.01780131 57.27242902 0.01704058 C68.29320445 0.01651501 79.3139739 0.01963051 90.33474782 0.02527842 C101.89739433 0.03118888 113.4600385 0.03504304 125.02268651 0.03613123 C125.7407454 0.03619997 126.4588043 0.03626871 127.19862255 0.03633953 C130.84505685 0.03667785 134.49149116 0.03697924 138.13792547 0.03726641 C163.98743383 0.03936864 189.83693912 0.04611105 215.68644574 0.05556902 C240.8039586 0.06474859 265.92147061 0.07183458 291.03898481 0.07607684 C291.81277424 0.07620836 292.58656368 0.07633989 293.38380128 0.0764754 C301.15428281 0.07779388 308.92476435 0.0790697 316.6952459 0.08031426 C332.52560012 0.08285069 348.35595428 0.08567195 364.18630841 0.08866534 C364.91421439 0.08880263 365.64212036 0.08893992 366.39208409 0.08908137 C415.02723394 0.09828707 463.66238199 0.11415361 512.29752973 0.13100848 C512.29752973 5.08100848 512.29752973 10.03100848 512.29752973 15.13100848 C261.33252973 15.62600848 261.33252973 15.62600848 5.29752973 16.13100848 C2.65752973 21.74100848 0.01752973 27.35100848 -2.70247027 33.13100848 C-17.18983636 60.17409183 -36.9871588 83.90390324 -61.70247027 102.13100848 C-62.76336871 102.91346941 -63.82426715 103.69593035 -64.91731402 104.50210223 C-70.63310088 108.57875119 -76.47936542 112.28519154 -82.57747027 115.75600848 C-83.16447711 116.09197039 -83.75148394 116.4279323 -84.35627887 116.77407488 C-91.30697789 120.63434358 -98.4524053 123.74764482 -105.70247027 127.13100848 C-106.03247027 165.41100848 -106.36247027 203.69100848 -106.70247027 243.13100848 C-111.65247027 243.13100848 -116.60247027 243.13100848 -121.70247027 243.13100848 C-121.70247027 201.22100848 -121.70247027 159.31100848 -121.70247027 116.13100848 C-114.77247027 113.16100848 -107.84247027 110.19100848 -100.70247027 107.13100848 C-89.52139347 101.57956475 -79.56044288 95.69773603 -69.70247027 88.13100848 C-68.37602496 87.14100848 -68.37602496 87.14100848 -67.02278277 86.13100848 C-39.5100428 64.72291901 -20.18624648 36.26659131 -7.83137652 3.94741473 C-5.99909847 -0.62377031 -4.76387911 0.01437493 0 0 Z " fill="#FBF8F8" transform="translate(567.7024702727795,363.8689915239811)"/>
<path d="M0 0 C4.95 0 9.9 0 15 0 C15.33 38.28 15.66 76.56 16 116 C23.59 119.63 31.18 123.26 39 127 C55.324639 136.43201364 69.37059342 148.04157959 83 161 C83.65226563 161.61101562 84.30453125 162.22203125 84.9765625 162.8515625 C90.13544075 167.82198858 94.58125133 173.37263889 99 179 C99.63679687 179.80824219 100.27359375 180.61648437 100.9296875 181.44921875 C126 214.5815612 126 214.5815612 126 228 C293.64 228 461.28 228 634 228 C634 232.95 634 237.9 634 243 C463.06 243 292.12 243 116 243 C111.545 232.605 111.545 232.605 107 222 C99.51273132 206.90470025 90.50252076 193.44233267 79.41015625 180.76953125 C77.86700536 178.99628331 76.36234061 177.18832515 74.91015625 175.33984375 C73.17581981 173.21537028 71.46585811 171.51165917 69.375 169.75 C67.14270226 167.85295576 64.94856338 165.95132879 62.8203125 163.9375 C55.48880358 157.02563974 47.41962846 151.48184443 39 146 C38.37963867 145.59217285 37.75927734 145.1843457 37.12011719 144.76416016 C26.95852478 138.14737285 16.25787603 133.44403795 5 129 C3.35 128.34 1.7 127.68 0 127 C0 85.09 0 43.18 0 0 Z " fill="#FBF9F9" transform="translate(446,0)"/>
<path d="M0 0 C36.3 0 72.6 0 110 0 C106.7 7.92 103.4 15.84 100 24 C89.90299202 49.14352968 84.17845949 75.15038164 81 102 C115.15411355 97.50370096 148.27493935 90.0398464 179.17578125 74.36328125 C182 73 182 73 184 73 C184 109.63 184 146.26 184 184 C180.02483857 182.67494619 176.39859808 181.36559832 172.60546875 179.6796875 C152.47472521 170.86082099 132.38247381 163.52393563 110.69140625 159.69140625 C107 159 107 159 105 158 C103.19060618 157.71043155 101.37382543 157.46630518 99.5546875 157.24609375 C98.47832031 157.11396484 97.40195312 156.98183594 96.29296875 156.84570312 C94.60107422 156.64364258 94.60107422 156.64364258 92.875 156.4375 C91.73933594 156.29892578 90.60367188 156.16035156 89.43359375 156.01757812 C86.62277956 155.67508396 83.81159213 155.33603805 81 155 C83.36108373 172.27575718 86.50694642 189.14797166 91 206 C91.19142578 206.72767578 91.38285156 207.45535156 91.58007812 208.20507812 C95.61121111 223.18423279 101.60738868 238.44191828 108.65771484 252.24560547 C110 255 110 255 110 257 C73.7 257 37.4 257 0 257 C0.76680005 253.16599975 1.46955076 250.62781911 3.0390625 247.18359375 C3.4510791 246.26610352 3.8630957 245.34861328 4.28759766 244.40332031 C4.72894043 243.42459961 5.1702832 242.44587891 5.625 241.4375 C17.56841792 214.23658876 26.40609702 184.84583337 28 155 C-8.47875063 159.6287903 -40.15108055 169.2830785 -74 184 C-74 147.37 -74 110.74 -74 73 C-66.41 76.3 -58.82 79.6 -51 83 C-45.65899264 85.01435113 -40.35348312 86.97157292 -34.9375 88.75 C-34.25664337 88.9764621 -33.57578674 89.20292419 -32.8742981 89.43624878 C-13.15350906 95.949477 7.3134275 100.08335271 28 102 C25.54588902 67.64244632 15.25379804 34.95485929 0.75927734 3.86230469 C0 2 0 2 0 0 Z M12 8 C15.63 17.57 19.26 27.14 23 37 C25.18786744 44.33340753 27.25485575 51.56737563 29 59 C29.33572021 60.39532959 29.33572021 60.39532959 29.67822266 61.81884766 C33.53395061 78.07446478 35.51130112 94.37403297 37 111 C2.94171743 108.37107727 -31.03291338 101.1952833 -62.13476562 86.75854492 C-63.97318031 85.87442825 -63.97318031 85.87442825 -66 86 C-66 114.05 -66 142.1 -66 171 C-59.98490435 168.99496812 -54.12229652 166.910386 -48.25 164.5625 C-34.91581792 159.33153438 -21.39571511 155.72128727 -7.44335938 152.55517578 C-5.38190349 152.08677543 -3.32340141 151.60540305 -1.265625 151.12109375 C11.32237745 148.35115312 24.19431138 147.30191865 37 146 C35.37393639 168.42511606 31.98783117 190.5924637 25 212 C24.70738281 213.03640625 24.41476562 214.0728125 24.11328125 215.140625 C21.72206319 223.58021815 18.39687573 231.58929764 14.99707031 239.6628418 C14.61131836 240.58234619 14.22556641 241.50185059 13.828125 242.44921875 C13.4765332 243.27768311 13.12494141 244.10614746 12.76269531 244.9597168 C11.88328237 246.94920118 11.88328237 246.94920118 12 249 C40.05 249 68.1 249 97 249 C96.28389616 245.41948081 95.58544127 242.63111982 94.29296875 239.3046875 C93.95330078 238.42296875 93.61363281 237.54125 93.26367188 236.6328125 C92.90853516 235.72273437 92.55339844 234.81265625 92.1875 233.875 C90.78440586 230.25275321 89.3879787 226.62806684 88 223 C87.65404785 222.1013623 87.3080957 221.20272461 86.95166016 220.27685547 C84.49349585 213.73540063 82.60582068 207.17352042 81 200.375 C80.61763184 198.76733765 80.61763184 198.76733765 80.22753906 197.12719727 C76.32994992 180.26754385 74.09430391 163.15833279 72 146 C106.93872265 150.02554144 106.93872265 150.02554144 123 154 C124.23363281 154.29519531 125.46726562 154.59039062 126.73828125 154.89453125 C141.02116444 158.49977029 155.31207961 163.02798349 168.72265625 169.15234375 C171.21979302 170.23255482 171.21979302 170.23255482 175 170 C175 142.61 175 115.22 175 87 C170.65298498 87.7245025 167.3949748 88.44100526 163.3671875 89.92578125 C162.31273437 90.31056641 161.25828125 90.69535156 160.171875 91.09179688 C159.08390625 91.49462891 157.9959375 91.89746094 156.875 92.3125 C133.71517083 100.8221951 133.71517083 100.8221951 123.3125 103.125 C122.63123047 103.28097656 121.94996094 103.43695313 121.24804688 103.59765625 C119.85806186 103.91469336 118.46683229 104.22631916 117.07446289 104.53271484 C115.74387101 104.83243861 114.41690474 105.14904396 113.09545898 105.48681641 C105.00941393 107.48117195 96.69773404 108.19588408 88.4375 109.125 C86.84044495 109.30815967 85.24343921 109.49174982 83.64648438 109.67578125 C79.76487388 110.12215501 75.8826416 110.5626896 72 111 C72.33 110.34 72.66 109.68 73 109 C73.16056432 106.66884395 73.27772277 104.33465342 73.375 102 C75.04618974 71.42239638 83.92278275 40.33669533 96.06225586 12.37646484 C97.12235113 10.11573162 97.12235113 10.11573162 97 8 C68.95 8 40.9 8 12 8 Z " fill="#F4F4F4" transform="translate(330,175)"/>
<path d="M0 0 C0.822724 0.00176239 1.645448 0.00352478 2.49310303 0.00534058 C16.58949424 0.07227161 29.8159336 1.41987772 43.375 5.5 C44.25236816 5.76232422 45.12973633 6.02464844 46.03369141 6.29492188 C70.64863 13.88274623 92.40688182 26.01666603 111.375 43.5 C111.87161133 43.9527832 112.36822266 44.40556641 112.87988281 44.87207031 C137.07270315 67.1785109 152.49229547 96.42815057 159.85498047 128.26074219 C160.32783684 130.29691056 160.8358362 132.3248373 161.34765625 134.3515625 C163.49693741 144.16827924 163.66186048 153.92831368 163.6875 163.9375 C163.69117584 164.63177094 163.69485168 165.32604187 163.69863892 166.04135132 C163.72086875 174.08462993 163.28221437 181.66583086 161.375 189.5 C161.10550048 190.87895794 160.84228966 192.25916252 160.5859375 193.640625 C154.06561599 226.49652907 138.48342608 254.52770753 115.375 278.5 C114.71242188 279.21414063 114.04984375 279.92828125 113.3671875 280.6640625 C99.19862139 295.54402106 80.26981703 306.71253761 61.375 314.5 C60.75431641 314.76119629 60.13363281 315.02239258 59.49414062 315.29150391 C21.75446329 330.86248699 -24.01656103 329.84282304 -61.625 314.5 C-67.11183594 312.11184904 -72.38414818 309.38150701 -77.625 306.5 C-78.64464844 305.95859375 -79.66429687 305.4171875 -80.71484375 304.859375 C-118.79123367 283.80236474 -144.96660622 247.64992272 -157.625 206.5 C-161.56489125 192.37676081 -162.99238726 178.25370918 -162.875 163.625 C-162.87156586 162.92178619 -162.86813171 162.21857239 -162.86459351 161.49404907 C-162.73569281 138.96969183 -158.94685518 118.10735451 -149.625 97.5 C-149.34317871 96.87061523 -149.06135742 96.24123047 -148.77099609 95.59277344 C-142.05785471 80.83201751 -133.04364153 65.15287007 -121.625 53.5 C-120.965 53.5 -120.305 53.5 -119.625 53.5 C-119.42390625 52.96632812 -119.2228125 52.43265625 -119.015625 51.8828125 C-117.02827207 48.47751675 -114.25403724 46.01550953 -111.375 43.375 C-110.75020752 42.80096436 -110.12541504 42.22692871 -109.48168945 41.63549805 C-79.3132764 14.41089853 -40.48286362 -0.23442491 0 0 Z M-107.625 52.5 C-108.29789062 53.10070312 -108.97078125 53.70140625 -109.6640625 54.3203125 C-135.17622692 78.38154814 -152.44829826 116.5568529 -153.73510742 151.48901367 C-153.97559825 164.92910255 -154.06633847 178.24296434 -151.625 191.5 C-151.40328125 192.78648437 -151.1815625 194.07296875 -150.953125 195.3984375 C-143.85833228 232.26031993 -119.85207586 267.37464532 -89.2890625 288.90234375 C-85.81976824 291.24996736 -82.2490832 293.40117998 -78.625 295.5 C-77.5716748 296.11488281 -77.5716748 296.11488281 -76.49707031 296.7421875 C-53.04725838 310.24142507 -28.25095033 316.72010979 -1.25 316.75 C-0.18052628 316.75200912 -0.18052628 316.75200912 0.91055298 316.75405884 C12.00831597 316.74953836 22.54115775 315.98870138 33.375 313.5 C34.56738281 313.26023437 35.75976562 313.02046875 36.98828125 312.7734375 C43.80826071 311.34179245 49.9961122 309.26766009 56.375 306.5 C57.39722656 306.10296875 58.41945313 305.7059375 59.47265625 305.296875 C97.53382561 290.08988655 126.50848474 259.21776494 142.55078125 221.984375 C146.22256787 213.10333453 149.09632156 204.35113247 151.0625 194.9375 C151.38057617 193.49213867 151.38057617 193.49213867 151.70507812 192.01757812 C159.99784367 153.22208504 150.8921797 112.90864658 130.14404297 79.51904297 C124.54866739 70.89011161 117.89810574 63.29798676 110.75195312 55.92822266 C109.53003033 54.66080274 108.33336774 53.36913701 107.140625 52.07421875 C100.64830231 45.20358402 93.10252749 39.87706232 85.375 34.5 C84.45847656 33.84902344 83.54195312 33.19804687 82.59765625 32.52734375 C74.42978033 27.00238608 65.45030236 23.25793628 56.375 19.5 C55.25609375 19.02433594 54.1371875 18.54867187 52.984375 18.05859375 C35.72480588 11.27804874 17.78977878 9.02693122 -0.625 9 C-1.34650238 8.99559906 -2.06800476 8.99119812 -2.81137085 8.98666382 C-42.78641505 8.88474041 -78.43861967 26.0021069 -107.625 52.5 Z " fill="#080808" transform="translate(384.625,140.5)"/>
<path d="M0 0 C20.13 0 40.26 0 61 0 C61 44.22 61 88.44 61 134 C56.05 133.67 51.1 133.34 46 133 C42.99475602 132.91980367 40.01460337 132.85823091 37.01171875 132.8671875 C36.25760208 132.86623077 35.50348541 132.86527405 34.72651672 132.86428833 C33.16329869 132.86361941 31.60007764 132.86538149 30.03686523 132.86962891 C27.67229932 132.87503475 25.30791994 132.8696199 22.94335938 132.86328125 C21.40364542 132.86394153 19.86393159 132.86522164 18.32421875 132.8671875 C17.63543137 132.86516327 16.94664398 132.86313904 16.23698425 132.86105347 C10.71582425 132.88696799 5.56819828 133.44318017 0 134 C0 89.78 0 45.56 0 0 Z " fill="#020202" transform="translate(354,0)"/>
<path d="M0 0 C3.3 0.33 6.6 0.66 10 1 C12.95292758 1.08650039 15.88055355 1.14089913 18.83203125 1.1328125 C19.63049973 1.13376923 20.4289682 1.13472595 21.25163269 1.13571167 C22.92630086 1.13638619 24.60097176 1.13458327 26.27563477 1.13037109 C28.79644853 1.12503398 31.31708242 1.13033011 33.83789062 1.13671875 C35.48177122 1.13605743 37.1256517 1.13477514 38.76953125 1.1328125 C39.86863579 1.13584885 39.86863579 1.13584885 40.98994446 1.13894653 C47.73556032 1.10971987 54.21098688 0.52223178 61 0 C61 44.22 61 88.44 61 134 C40.87 134 20.74 134 0 134 C0 89.78 0 45.56 0 0 Z " fill="#020202" transform="translate(354,473)"/>
<path d="M0 0 C4.95 0 9.9 0 15 0 C15 45.54 15 91.08 15 138 C9.06 139.98 3.12 141.96 -3 144 C-6.29502017 145.35649006 -9.44491702 146.68786695 -12.625 148.25 C-13.79518677 148.81678467 -13.79518677 148.81678467 -14.98901367 149.39501953 C-35.54534524 159.57199968 -55.55483803 174.05298058 -70 192 C-70.78117188 192.96679688 -71.56234375 193.93359375 -72.3671875 194.9296875 C-84.61420998 210.33488034 -95.51160395 227.99956293 -101 247 C-101.55443396 248.71096815 -102.11631041 250.41955241 -102.6875 252.125 C-102.91824219 252.82882813 -103.14898437 253.53265625 -103.38671875 254.2578125 C-104 256 -104 256 -105 258 C-177.27 258 -249.54 258 -324 258 C-324 253.05 -324 248.1 -324 243 C-255.36 243 -186.72 243 -116 243 C-115.34 240.03 -114.68 237.06 -114 234 C-113.01367188 231.30444336 -113.01367188 231.30444336 -111.96875 229.08984375 C-111.5756665 228.25332275 -111.18258301 227.41680176 -110.77758789 226.55493164 C-110.35598389 225.6911792 -109.93437988 224.82742676 -109.5 223.9375 C-108.8356897 222.56549438 -108.8356897 222.56549438 -108.15795898 221.16577148 C-98.83925696 202.27624341 -86.47424648 186.20251045 -72 171 C-71.07960937 170.01773438 -71.07960937 170.01773438 -70.140625 169.015625 C-54.70874966 152.99586869 -34.64704357 140.66281367 -14.5 131.5625 C-13.36908936 131.04876831 -13.36908936 131.04876831 -12.21533203 130.5246582 C-11.49458496 130.20843506 -10.77383789 129.89221191 -10.03125 129.56640625 C-9.08088867 129.14790405 -9.08088867 129.14790405 -8.11132812 128.72094727 C-6 128 -6 128 0 127 C0 85.09 0 43.18 0 0 Z " fill="#020202" transform="translate(324,0)"/>
<path d="M0 0 C72.27 0 144.54 0 219 0 C220.98 6.435 220.98 6.435 223 13 C224.77975702 17.4445031 226.89249615 21.70205812 229 26 C229.60507054 27.28212591 230.20920429 28.56469425 230.8125 29.84765625 C237.49771703 43.8648812 245.87177398 56.22166974 256 68 C256.60585938 68.72832031 257.21171875 69.45664062 257.8359375 70.20703125 C261.85881953 74.96713827 266.23036556 79.0020448 271 83 C271.86238281 83.76183594 272.72476562 84.52367187 273.61328125 85.30859375 C292.40926804 101.61201396 315.15491331 113.18711809 339 120 C339 165.54 339 211.08 339 258 C334.05 258 329.1 258 324 258 C324 216.09 324 174.18 324 131 C322.02 130.67 320.04 130.34 318 130 C315.92041016 129.29492188 315.92041016 129.29492188 314.0390625 128.46875 C313.32854736 128.15768311 312.61803223 127.84661621 311.88598633 127.52612305 C311.13986084 127.18750244 310.39373535 126.84888184 309.625 126.5 C308.83697998 126.14397705 308.04895996 125.7879541 307.23706055 125.42114258 C262.25672263 104.73622718 227.43212119 67.33871257 209.1796875 21.37890625 C208 18 208 18 208 15 C139.36 15 70.72 15 0 15 C0 10.05 0 5.1 0 0 Z " fill="#030303" transform="translate(0,349)"/>
<path d="M0 0 C68.64 0 137.28 0 208 0 C211.3 7.92 214.6 15.84 218 24 C224.00636001 35.06789935 230.05759981 45.2702238 238 55 C238.42780762 55.52787109 238.85561523 56.05574219 239.29638672 56.59960938 C260.16420586 82.23914805 291.07498907 107.76874727 324 116 C324 157.91 324 199.82 324 243 C319.05 243 314.1 243 309 243 C309 204.72 309 166.44 309 127 C306.03 126.01 303.06 125.02 300 124 C298.4762375 123.33701467 296.96668068 122.63743022 295.4921875 121.87109375 C294.7405835 121.48099121 293.98897949 121.09088867 293.21459961 120.68896484 C292.44253174 120.27598145 291.67046387 119.86299805 290.875 119.4375 C290.05459229 119.00131348 289.23418457 118.56512695 288.38891602 118.11572266 C276.81561774 111.85606419 266.01090249 104.54920874 256 96 C255.25105469 95.36191406 254.50210938 94.72382813 253.73046875 94.06640625 C239.92240654 81.95286577 227.61375327 68.99809837 217 54 C216.5870166 53.42636719 216.1740332 52.85273438 215.74853516 52.26171875 C197 25.95569537 197 25.95569537 197 15 C131.99 15 66.98 15 0 15 C0 10.05 0 5.1 0 0 Z " fill="#FBF9F9" transform="translate(0,364)"/>
<path d="M0 0 C4.95 0 9.9 0 15 0 C15 41.91 15 83.82 15 127 C7.08 129.97 7.08 129.97 -1 133 C-4.32977644 134.56666473 -7.53345483 136.11987116 -10.75 137.875 C-11.54873535 138.30425781 -12.3474707 138.73351562 -13.17041016 139.17578125 C-54.15719103 161.51262403 -86.21164251 198.63492752 -101 243 C-169.64 243 -238.28 243 -309 243 C-309 238.05 -309 233.1 -309 228 C-243.99 228 -178.98 228 -112 228 C-111.01 225.03 -110.02 222.06 -109 219 C-108.31472488 217.44035228 -107.59135123 215.89572575 -106.80078125 214.38671875 C-106.20027954 213.23635132 -106.20027954 213.23635132 -105.58764648 212.06274414 C-105.16684814 211.27891357 -104.7460498 210.49508301 -104.3125 209.6875 C-103.87043213 208.85790771 -103.42836426 208.02831543 -102.97290039 207.17358398 C-99.36005958 200.48595735 -95.44740045 194.17208134 -91 188 C-90.30390625 187.01902344 -89.6078125 186.03804687 -88.890625 185.02734375 C-82.02864686 175.59820712 -74.25178245 167.22550289 -66 159 C-65.2678125 158.23300781 -64.535625 157.46601563 -63.78125 156.67578125 C-57.36750489 150.0314049 -50.48004162 144.36835059 -43 139 C-42.42652832 138.5875 -41.85305664 138.175 -41.26220703 137.75 C-33.84202266 132.47488975 -26.16216528 127.83849234 -18.125 123.5625 C-17.35269043 123.14935547 -16.58038086 122.73621094 -15.78466797 122.31054688 C-15.03330566 121.92060547 -14.28194336 121.53066406 -13.5078125 121.12890625 C-12.52772217 120.61952515 -12.52772217 120.61952515 -11.52783203 120.09985352 C-7.78808942 118.47270068 -3.86910468 117.28970156 0 116 C0 77.72 0 39.44 0 0 Z " fill="#FCFAFA" transform="translate(309,0)"/>
<path d="M0 0 C1.1283728 0.00264359 1.1283728 0.00264359 2.27954102 0.00534058 C26.14635558 0.12892625 47.23858102 6.07576343 69 15.5 C68.67 16.49 68.34 17.48 68 18.5 C23.12 18.5 -21.76 18.5 -68 18.5 C-68.33 17.84 -68.66 17.18 -69 16.5 C-60.92098566 12.36256538 -52.81958119 8.89033723 -44.125 6.25 C-43.3731543 6.01651855 -42.62130859 5.78303711 -41.84667969 5.54248047 C-28.05916011 1.51560366 -14.31015863 -0.09082583 0 0 Z " fill="#F5F5F5" transform="translate(384,149.5)"/>
<path d="M0 0 C0.33 0.99 0.66 1.98 1 3 C-31.0602541 16.66880294 -67.4849193 23.90229334 -102 15 C-102.81355957 14.79068848 -103.62711914 14.58137695 -104.46533203 14.36572266 C-115.13137348 11.53652863 -125.16874722 8.05914833 -135 3 C-135 2.34 -135 1.68 -135 1 C-68.175 0.505 -68.175 0.505 0 0 Z " fill="#F4F4F4" transform="translate(452,439)"/>
<path d="M0 0 C0.66 0 1.32 0 2 0 C1.52269162 1.4589426 1.04308958 2.91713496 0.5625 4.375 C0.29566406 5.18710938 0.02882812 5.99921875 -0.24609375 6.8359375 C-1 9 -1 9 -2 11 C-67.01 11 -132.02 11 -199 11 C-199 10.34 -199 9.68 -199 9 C-133.99 8.67 -68.98 8.34 -2 8 C-1.67 6.35 -1.34 4.7 -1 3 C-0.67 2.01 -0.34 1.02 0 0 Z " fill="#D9322D" transform="translate(199,217)"/>
<path d="M0 0 C0.33 0.99 0.66 1.98 1 3 C-0.2578125 5.0078125 -0.2578125 5.0078125 -2.125 7.125 C-2.72570312 7.82882812 -3.32640625 8.53265625 -3.9453125 9.2578125 C-6.31139318 11.264033 -7.95461799 11.65225742 -11 12 C-7.49102731 7.81576108 -3.91939465 3.80411834 0 0 Z " fill="#C80F11" transform="translate(534,440)"/>
<path d="M0 0 C0.66 0 1.32 0 2 0 C1.52449439 1.48034764 1.04448784 2.95925021 0.5625 4.4375 C0.29566406 5.26121094 0.02882812 6.08492187 -0.24609375 6.93359375 C-1 9 -1 9 -2 10 C-4.01964199 10.07244053 -6.04167124 10.08377188 -8.0625 10.0625 C-9.16722656 10.05347656 -10.27195313 10.04445312 -11.41015625 10.03515625 C-12.69212891 10.01775391 -12.69212891 10.01775391 -14 10 C-14 9.67 -14 9.34 -14 9 C-8.06 8.505 -8.06 8.505 -2 8 C-1.67 6.35 -1.34 4.7 -1 3 C-0.67 2.01 -0.34 1.02 0 0 Z " fill="#C81213" transform="translate(199,217)"/>
<path d="M0 0 C0.66 0.33 1.32 0.66 2 1 C1.67 2.32 1.34 3.64 1 5 C-6.625 6 -6.625 6 -10 6 C-6.87511433 3.47605388 -3.68685613 1.60298093 0 0 Z " fill="#E7E7E7" transform="translate(325,161)"/>
<path d="M0 0 C0.99 0.33 1.98 0.66 3 1 C-0.3 4.3 -3.6 7.6 -7 11 C-7.33 10.01 -7.66 9.02 -8 8 C-7.34 8 -6.68 8 -6 8 C-6 7.34 -6 6.68 -6 6 C-5.34 6 -4.68 6 -4 6 C-4 5.01 -4 4.02 -4 3 C-2.68 2.67 -1.36 2.34 0 2 C0 1.34 0 0.68 0 0 Z " fill="#FED9DD" transform="translate(533,438)"/>
<path d="M0 0 C-1.2748209 2.84383123 -2.45137078 5.13754018 -5 7 C-7.1015625 6.57421875 -7.1015625 6.57421875 -9 6 C-7.8803014 4.99406757 -6.7540588 3.9954151 -5.625 3 C-4.68527344 2.1646875 -4.68527344 2.1646875 -3.7265625 1.3125 C-2 0 -2 0 0 0 Z " fill="#FEDEDD" transform="translate(260,145)"/>
<path d="M0 0 C6.875 3.75 6.875 3.75 8 6 C6.35 6.33 4.7 6.66 3 7 C2.67 5.35 2.34 3.7 2 2 C1.34 2 0.68 2 0 2 C0 1.34 0 0.68 0 0 Z " fill="#CA1111" transform="translate(262,465)"/>
<path d="M0 0 C0.66 0.33 1.32 0.66 2 1 C0.02 3.97 -1.96 6.94 -4 10 C-4.33 8.68 -4.66 7.36 -5 6 C-4.34 6 -3.68 6 -3 6 C-2.87625 5.38125 -2.7525 4.7625 -2.625 4.125 C-2 2 -2 2 0 0 Z " fill="#FEDCDD" transform="translate(550,417)"/>
<path d="M0 0 C0.66 0.33 1.32 0.66 2 1 C0.35 2.98 -1.3 4.96 -3 7 C-3.33 6.34 -3.66 5.68 -4 5 C-5.32 5.33 -6.64 5.66 -8 6 C-5.63404067 3.38499232 -3.13950774 1.61000397 0 0 Z " fill="#FDDEDC" transform="translate(283,128)"/>
<path d="M0 0 C0.625 1.8125 0.625 1.8125 1 4 C0.01 5.485 0.01 5.485 -1 7 C-1.66 7 -2.32 7 -3 7 C-3 7.99 -3 8.98 -3 10 C-3.66 10 -4.32 10 -5 10 C-3.66511872 6.40608886 -2.03977277 3.24509304 0 0 Z " fill="#FDD6D4" transform="translate(211,199)"/>
<path d="M0 0 C2.64752004 2.57784846 4.94432065 4.91648098 7 8 C4.24542282 7.62005832 3.17979426 7.1926367 1.25 5.125 C0 3 0 3 0 0 Z " fill="#FEDDD9" transform="translate(538,172)"/>
</svg>
